<svg width="45" height="45" viewBox="0 0 45 45" fill="none" xmlns="http://www.w3.org/2000/svg">
<g clip-path="url(#clip0_72_6897)">
<path d="M22.3973 0C10.0273 0 0 10.0527 0 22.454C0 32.6016 6.71642 41.176 15.9347 43.9572V31.366H28.9401V42.3984H28.9427V43.9334C38.1189 41.1272 44.7946 32.5726 44.7946 22.4553C44.7932 10.0527 34.766 0 22.3973 0ZM32.0641 39.6687V28.2511H30.3094V28.234H28.9124V22.5252H35.3171L39.9118 18.3251L37.8072 16.0107L34.1069 19.3932H25.7884V28.234H19.0627V19.3932H10.7442L7.04395 16.0107L4.93932 18.3251L9.534 22.5252H15.9387V28.234H12.812V39.7148C6.77693 36.3389 2.69525 29.8745 2.69525 22.454C2.69393 11.5441 11.515 2.70076 22.3973 2.70076C33.2796 2.70076 42.1006 11.5441 42.1006 22.454C42.1006 29.8415 38.0545 36.2809 32.0641 39.6687Z" fill="#00997F"/>
<path d="M32.1497 14.7315H30.2292H30.0595H26.9552H17.8934H14.7877H14.618H12.6989L10.3233 12.5239L8.21863 14.8383L11.4887 17.8635H13.1066H14.618V17.8661H17.8934H26.9552H30.2292V17.8635H31.7406H33.3598L36.6286 14.8383L34.524 12.5239L32.1497 14.7315Z" fill="#00997F"/>
<path d="M18.4195 11.5376H26.429L26.9381 12.8893H30.2292L28.1943 7.72389H25.5187L25.7239 8.56787H19.1154L19.4206 7.69092H16.5254L14.618 12.8986H17.8723L18.4195 11.5376Z" fill="#00997F"/>
<path d="M16.232 43.9059V40.2649H17.0686V41.6285H17.55V40.2649H18.3866V43.9059H17.55V42.3564H17.0686V43.9059H16.232Z" fill="#00997F"/>
<path d="M19.2732 40.2609H20.3821L21.0674 43.9058H20.1861L20.1085 43.2583H19.5231L19.4363 43.9058H18.5997L19.2719 40.2609H19.2732ZM19.9322 39.4248L20.1322 40.0433H19.7112L19.2167 39.4248H19.9335H19.9322ZM19.61 42.6122H20.0269L19.8323 40.8266L19.61 42.6122Z" fill="#00997F"/>
<path d="M22.4078 43.9059V40.2649H23.322L23.9941 42.4105L24.0034 40.2649H24.8136V43.9059H23.9047L23.2286 41.6548L23.2194 43.9059H22.4091H22.4078Z" fill="#00997F"/>
<path d="M25.1833 41.2552C25.1833 40.911 25.2846 40.6459 25.4871 40.4613C25.6779 40.2899 25.9357 40.2029 26.2619 40.2029C26.5881 40.2029 26.8433 40.2912 27.0433 40.4679C27.2432 40.6459 27.3432 40.9084 27.3432 41.2552V42.9115C27.3432 43.2307 27.2458 43.4852 27.0525 43.6764C26.8591 43.8676 26.596 43.9639 26.2632 43.9639C25.9304 43.9639 25.6739 43.8702 25.4806 43.6817C25.2833 43.4931 25.1859 43.2372 25.1859 42.9115V41.2552H25.1833ZM25.5871 40.0433L25.9646 39.4248H26.6052L26.9341 40.0433H26.4619L26.2619 39.6965L26.033 40.0433H25.5871ZM25.8804 44.2553H26.6618V44.7934H25.8804V44.2553ZM26.0199 42.9854C26.0199 43.0948 26.0383 43.1805 26.0751 43.2412C26.1106 43.2926 26.1725 43.319 26.2619 43.319C26.3606 43.319 26.4303 43.2755 26.4711 43.1898C26.4921 43.1265 26.5026 43.0579 26.5026 42.9854V41.1814C26.5026 41.0943 26.4934 41.0244 26.4763 40.9717C26.4395 40.8899 26.3685 40.849 26.2632 40.849C26.158 40.849 26.0922 40.8886 26.0528 40.9664C26.0317 41.0297 26.0212 41.1009 26.0212 41.18V42.9841L26.0199 42.9854Z" fill="#00997F"/>
<path d="M27.7352 43.9059V40.2649H28.5718V43.9059H27.7352Z" fill="#00997F"/>
</g>
<defs>
<clipPath id="clip0_72_6897">
<rect width="44.7933" height="44.7933" fill="white"/>
</clipPath>
</defs>
</svg>
