<svg width="21" height="21" viewBox="0 0 21 21" fill="none" xmlns="http://www.w3.org/2000/svg">
<path d="M13.3968 4C12.7296 4 12.0737 4.26976 11.5676 4.79756L7.06967 9.48907C5.64344 10.9767 5.64344 13.3967 7.06967 14.8843C8.4959 16.3719 10.8161 16.3719 12.2423 14.8843L15.241 11.7566L14.5663 11.0529L11.5676 14.1806C10.5087 15.285 8.80326 15.285 7.74437 14.1806C6.68547 13.0761 6.68547 11.2973 7.74437 10.1928L12.2423 5.50128C12.887 4.82883 13.9216 4.82883 14.5663 5.50128C15.211 6.17373 15.211 7.25278 14.5663 7.92523L10.0683 12.6167C9.83779 12.8572 9.47421 12.8572 9.24369 12.6167C9.01317 12.3763 9.01317 11.9971 9.24369 11.7566L13.3668 7.45608L12.6921 6.75235L8.56899 11.0529C7.97114 11.6765 7.97114 12.6969 8.56899 13.3205C9.16685 13.944 10.1452 13.944 10.743 13.3205L15.241 8.62896C16.253 7.57337 16.253 5.85315 15.241 4.79756C14.7349 4.26976 14.064 4 13.3968 4Z" fill="black"/>
</svg>
