<svg width="157" height="95" viewBox="0 0 157 95" fill="none" xmlns="http://www.w3.org/2000/svg">
<g clip-path="url(#clip0_2538_12845)">
<path d="M107.759 5.04008C108.584 2.71351 110.9 1.06055 113.339 1.06055H151.486C154.378 1.06055 156.451 3.35845 156.118 6.18665L146.268 89.0976C145.929 91.9306 143.313 94.2237 140.416 94.2237H19.3624C16.4699 94.2237 14.397 91.9258 14.7305 89.0976L23.0079 19.4581C23.3462 16.6252 25.9624 14.332 28.8597 14.332H94.7308C100.435 14.332 105.839 10.4767 107.764 5.04008H107.759Z" fill="#FF8F17"/>
<path d="M80.2627 10.4242C80.3438 8.0403 82.1355 6.34912 84.5754 6.34912H122.722C125.614 6.34912 128.421 8.69958 128.983 11.6042L144.051 88.9783C144.618 91.8781 142.727 94.2333 139.834 94.2333H18.7853C15.8927 94.2333 13.086 91.8829 12.5236 88.9783L0.100443 25.1958C-0.466631 22.2959 1.4252 19.9407 4.31776 19.9407H70.1889C75.8929 19.9407 80.0674 15.9946 80.2627 10.4194V10.4242Z" fill="url(#paint0_linear_2538_12845)"/>
<g opacity="0.5">
<g clip-path="url(#clip1_2538_12845)">
<path d="M44.0034 41.9624C36.5433 41.9624 30.4961 48.0445 30.4961 55.5476C30.4961 61.6871 34.5466 66.8748 40.106 68.5575V60.9395H47.9493V67.6144H47.9509V68.5431C53.4848 66.8453 57.5108 61.6695 57.5108 55.5484C57.51 48.0445 51.4627 41.9624 44.0034 41.9624ZM49.8333 65.9628V59.055H48.7751V59.0446H47.9326V55.5906H51.7951L54.5661 53.0495L53.2968 51.6492L51.0653 53.6957H46.0485V59.0446H41.9925V53.6957H36.9757L34.7442 51.6492L33.4749 53.0495L36.2459 55.5906H40.1084V59.0446H38.2227V65.9908C34.5831 63.9482 32.1215 60.0371 32.1215 55.5476C32.1208 48.9469 37.4406 43.5964 44.0034 43.5964C50.5663 43.5964 55.8861 48.9469 55.8861 55.5476C55.8861 60.0172 53.446 63.9131 49.8333 65.9628Z" fill="white"/>
<path d="M49.8855 50.8752H48.7272H48.6249H46.7528H41.2878H39.4148H39.3125H38.1551L36.7224 49.5396L35.4531 50.9398L37.4252 52.7701H38.401H39.3125V52.7717H41.2878H46.7528H48.7272V52.7701H49.6387H50.6153L52.5866 50.9398L51.3173 49.5396L49.8855 50.8752Z" fill="white"/>
<path d="M41.6051 48.9431H46.4355L46.7425 49.7609H48.7273L47.5 46.6357H45.8865L46.0102 47.1463H42.0248L42.2088 46.6157H40.4628L39.3125 49.7665H41.2751L41.6051 48.9431Z" fill="white"/>
<path d="M40.2852 68.5266V66.3237H40.7897V67.1487H41.08V66.3237H41.5846V68.5266H41.08V67.5891H40.7897V68.5266H40.2852Z" fill="white"/>
<path d="M42.121 66.3213H42.7898L43.2031 68.5266H42.6716L42.6247 68.1348H42.2717L42.2194 68.5266H41.7148L42.1202 66.3213H42.121ZM42.5184 65.8154L42.639 66.1896H42.3852L42.0869 65.8154H42.5192H42.5184ZM42.3241 67.7439H42.5756L42.4582 66.6636L42.3241 67.7439Z" fill="white"/>
<path d="M44.0078 68.5266V66.3237H44.5591L44.9645 67.6219L44.9701 66.3237H45.4587V68.5266H44.9106L44.5028 67.1647L44.4973 68.5266H44.0086H44.0078Z" fill="white"/>
<path d="M45.6836 66.9229C45.6836 66.7146 45.7447 66.5542 45.8668 66.4425C45.9819 66.3388 46.1374 66.2862 46.3341 66.2862C46.5308 66.2862 46.6847 66.3396 46.8053 66.4465C46.9259 66.5542 46.9862 66.713 46.9862 66.9229V67.925C46.9862 68.1181 46.9275 68.272 46.8109 68.3877C46.6942 68.5034 46.5356 68.5617 46.3349 68.5617C46.1342 68.5617 45.9795 68.505 45.8629 68.3909C45.7439 68.2768 45.6852 68.122 45.6852 67.925V66.9229H45.6836ZM45.9271 66.1896L46.1548 65.8154H46.5411L46.7395 66.1896H46.4547L46.3341 65.9798L46.1961 66.1896H45.9271ZM46.104 68.738H46.5753V69.0635H46.104V68.738ZM46.1881 67.9697C46.1881 68.0359 46.1992 68.0877 46.2214 68.1244C46.2429 68.1556 46.2801 68.1715 46.3341 68.1715C46.3936 68.1715 46.4356 68.1452 46.4602 68.0933C46.4729 68.055 46.4793 68.0135 46.4793 67.9697V66.8782C46.4793 66.8255 46.4737 66.7832 46.4634 66.7513C46.4412 66.7019 46.3983 66.6771 46.3349 66.6771C46.2714 66.6771 46.2318 66.7011 46.208 66.7481C46.1953 66.7864 46.1889 66.8295 46.1889 66.8774V67.9689L46.1881 67.9697Z" fill="white"/>
<path d="M47.2227 68.5266V66.3237H47.7272V68.5266H47.2227Z" fill="white"/>
</g>
<path d="M112.734 63.1438V57.4102H113.892V63.1438H112.734Z" fill="white"/>
<path d="M110.387 63.2213C109.969 63.2213 109.637 63.1458 109.392 62.9948C109.147 62.8438 108.971 62.629 108.862 62.3506C108.759 62.0675 108.707 61.7301 108.707 61.3384V59.2007C108.707 58.809 108.759 58.4739 108.862 58.1955C108.971 57.9171 109.147 57.7047 109.392 57.5584C109.637 57.4122 109.969 57.339 110.387 57.339C110.811 57.339 111.145 57.4145 111.39 57.5655C111.64 57.7118 111.816 57.9242 111.92 58.2026C112.028 58.4763 112.082 58.809 112.082 59.2007V61.3384C112.082 61.7301 112.028 62.0675 111.92 62.3506C111.816 62.629 111.64 62.8438 111.39 62.9948C111.145 63.1458 110.811 63.2213 110.387 63.2213ZM110.387 62.3789C110.538 62.3789 110.649 62.3459 110.719 62.2798C110.79 62.209 110.837 62.117 110.861 62.0038C110.884 61.8858 110.896 61.7607 110.896 61.6286V58.9175C110.896 58.7854 110.884 58.6627 110.861 58.5494C110.837 58.4362 110.79 58.3465 110.719 58.2805C110.649 58.2097 110.538 58.1743 110.387 58.1743C110.246 58.1743 110.14 58.2097 110.07 58.2805C109.999 58.3465 109.952 58.4362 109.929 58.5494C109.905 58.6627 109.893 58.7854 109.893 58.9175V61.6286C109.893 61.7607 109.903 61.8858 109.921 62.0038C109.945 62.117 109.992 62.209 110.063 62.2798C110.133 62.3459 110.242 62.3789 110.387 62.3789ZM109.279 56.9285L109.936 55.7676H110.839L111.51 56.9285H110.748L110.387 56.2206L110.034 56.9285H109.279ZM109.921 64.5662V63.6318H110.868V64.5662H109.921Z" fill="white"/>
<path d="M105.023 63.1438V57.4102H105.835L107.106 60.3973V57.4102H108.067V63.1438H107.29L106.019 59.9726V63.1438H105.023Z" fill="white"/>
<path d="M99.457 63.1436L100.566 57.41H101.858L102.959 63.1436H101.879L101.674 61.8836H100.77L100.551 63.1436H99.457ZM100.876 61.1687H101.561L101.215 58.854L100.876 61.1687ZM100.912 56.9782L100.036 55.5625H101.13L101.554 56.9782H100.912Z" fill="white"/>
<path d="M95.6641 63.1438V57.4102H96.8291V59.7673H97.8388V57.4102H99.0038V63.1438H97.8388V60.6026H96.8291V63.1438H95.6641Z" fill="white"/>
<path d="M91.6922 63.2217C91.2732 63.2217 90.9414 63.1461 90.6966 62.9951C90.4518 62.8441 90.2753 62.6294 90.1671 62.351C90.0635 62.0679 90.0117 61.7304 90.0117 61.3388V59.201C90.0117 58.8094 90.0635 58.4743 90.1671 58.1959C90.2753 57.9175 90.4518 57.7051 90.6966 57.5588C90.9414 57.4125 91.2732 57.3394 91.6922 57.3394C92.1158 57.3394 92.45 57.4149 92.6948 57.5659C92.9443 57.7122 93.1208 57.9245 93.2243 58.203C93.3326 58.4767 93.3867 58.8094 93.3867 59.201V61.3388C93.3867 61.7304 93.3326 62.0679 93.2243 62.351C93.1208 62.6294 92.9443 62.8441 92.6948 62.9951C92.45 63.1461 92.1158 63.2217 91.6922 63.2217ZM91.6922 62.3793C91.8428 62.3793 91.9534 62.3463 92.024 62.2802C92.0946 62.2094 92.1417 62.1174 92.1652 62.0041C92.1888 61.8862 92.2005 61.7611 92.2005 61.629V58.9179C92.2005 58.7858 92.1888 58.6631 92.1652 58.5498C92.1417 58.4366 92.0946 58.3469 92.024 58.2808C91.9534 58.2101 91.8428 58.1747 91.6922 58.1747C91.551 58.1747 91.445 58.2101 91.3744 58.2808C91.3038 58.3469 91.2568 58.4366 91.2332 58.5498C91.2097 58.6631 91.1979 58.7858 91.1979 58.9179V61.629C91.1979 61.7611 91.2073 61.8862 91.2262 62.0041C91.2497 62.1174 91.2968 62.2094 91.3674 62.2802C91.438 62.3463 91.5462 62.3793 91.6922 62.3793ZM90.5836 56.9288L91.2403 55.768H92.1441L92.8148 56.9288H92.0523L91.6922 56.221L91.3391 56.9288H90.5836ZM92.6383 56.1148L93.0125 55.2583H93.8245L93.2173 56.1148H92.6383Z" fill="white"/>
<path d="M86.0195 63.1438V57.4102H87.1845V59.7673H88.1942V57.4102H89.3592V63.1438H88.1942V60.6026H87.1845V63.1438H86.0195Z" fill="white"/>
<path d="M82.25 63.1438V57.4102H84.0646C84.4082 57.4102 84.6883 57.4762 84.9048 57.6084C85.1214 57.7358 85.2814 57.9222 85.385 58.1676C85.4932 58.4129 85.5474 58.7102 85.5474 59.0595C85.5474 59.47 85.4767 59.7909 85.3355 60.0221C85.199 60.2534 85.0107 60.4185 84.7707 60.5176C84.5306 60.612 84.2552 60.6592 83.9446 60.6592H83.415V63.1438H82.25ZM83.415 59.8381H83.8245C83.994 59.8381 84.1234 59.8121 84.2129 59.7602C84.307 59.7036 84.3706 59.6163 84.4035 59.4983C84.4365 59.3803 84.4529 59.2293 84.4529 59.0453C84.4529 58.8707 84.4388 58.7244 84.4106 58.6064C84.387 58.4885 84.3306 58.3964 84.2411 58.3304C84.1517 58.2643 84.0105 58.2313 83.8175 58.2313H83.415V59.8381Z" fill="white"/>
<path d="M76.5469 63.1438V57.4102H77.7119V59.7673H78.7216V57.4102H79.8866V63.1438H78.7216V60.6026H77.7119V63.1438H76.5469Z" fill="white"/>
<path d="M72.7656 63.1438V57.4102H73.5776L74.8485 60.3973V57.4102H75.8088V63.1438H75.0321L73.7612 59.9726V63.1438H72.7656Z" fill="white"/>
<path d="M68.8242 63.1436L69.9328 57.41H71.2249L72.3263 63.1436H71.246L71.0413 61.8836H70.1375L69.9186 63.1436H68.8242ZM70.2434 61.1687H70.9283L70.5823 58.854L70.2434 61.1687ZM70.2787 56.9782L69.4032 55.5625H70.4976L70.9212 56.9782H70.2787Z" fill="white"/>
<path d="M65.0312 63.1438V57.4102H66.1963V59.7673H67.2059V57.4102H68.371V63.1438H67.2059V60.6026H66.1963V63.1438H65.0312Z" fill="white"/>
<path d="M62.5974 63.1438V58.2808H61.7148V57.4102H64.638V58.2808H63.7695V63.1438H62.5974Z" fill="white"/>
<path d="M90.0938 54.2956V48.562H91.2588V50.9192H92.2684V48.562H93.4335V54.2956H92.2684V51.7544H91.2588V54.2956H90.0938Z" fill="white"/>
<path d="M87.9078 54.3735C87.4841 54.3735 87.1476 54.2933 86.8981 54.1328C86.6533 53.9724 86.4815 53.7506 86.3826 53.4674C86.2838 53.1796 86.2344 52.8469 86.2344 52.4693V50.4095C86.2344 50.0131 86.2838 49.6733 86.3826 49.3902C86.4815 49.1023 86.6533 48.8805 86.8981 48.7248C87.1476 48.5691 87.4841 48.4912 87.9078 48.4912C88.3173 48.4912 88.6374 48.5596 88.868 48.6965C89.1034 48.8333 89.2681 49.0268 89.3623 49.2769C89.4611 49.527 89.5105 49.8173 89.5105 50.1476V50.6289H88.3808V50.091C88.3808 49.9588 88.3738 49.8361 88.3596 49.7229C88.3455 49.6049 88.3055 49.5105 88.2396 49.4397C88.1784 49.3642 88.0702 49.3265 87.9148 49.3265C87.7595 49.3265 87.6465 49.3642 87.5759 49.4397C87.5053 49.5152 87.4606 49.6143 87.4418 49.737C87.4229 49.855 87.4135 49.9871 87.4135 50.1334V52.7383C87.4135 52.8988 87.4253 53.0403 87.4488 53.163C87.4771 53.281 87.5265 53.373 87.5971 53.4391C87.6724 53.5005 87.7783 53.5311 87.9148 53.5311C88.0655 53.5311 88.1714 53.4957 88.2326 53.4249C88.2985 53.3494 88.3385 53.2503 88.3526 53.1277C88.3714 53.005 88.3808 52.8752 88.3808 52.7383V52.1791H89.5105V52.6534C89.5105 52.9884 89.4635 53.2857 89.3693 53.5453C89.2752 53.8001 89.1128 54.003 88.8821 54.154C88.6515 54.3003 88.3267 54.3735 87.9078 54.3735Z" fill="white"/>
<path d="M84.4258 54.2956V48.562H85.5837V54.2956H84.4258ZM84.5246 55.7184V54.784H85.4708V55.7184H84.5246Z" fill="white"/>
<path d="M80.5078 54.2956V48.562H81.9058C82.3907 48.562 82.7672 48.6257 83.0355 48.7531C83.3086 48.8758 83.5016 49.0717 83.6145 49.3407C83.7275 49.6049 83.784 49.9447 83.784 50.36V52.4481C83.784 52.8728 83.7275 53.222 83.6145 53.4957C83.5016 53.7695 83.3109 53.9724 83.0426 54.1045C82.779 54.2319 82.4095 54.2956 81.9341 54.2956H80.5078ZM81.6728 53.4816H81.92C82.1365 53.4816 82.2895 53.4486 82.3789 53.3825C82.473 53.3117 82.5319 53.2102 82.5554 53.0781C82.579 52.9413 82.5907 52.7737 82.5907 52.5755V50.2113C82.5907 50.0131 82.5742 49.855 82.5413 49.737C82.5131 49.6144 82.4519 49.5247 82.3577 49.4681C82.2683 49.4114 82.12 49.3831 81.9129 49.3831H81.6728V53.4816Z" fill="white"/>
<path d="M76.5499 54.3735C76.1168 54.3735 75.7803 54.3003 75.5402 54.1541C75.3001 54.003 75.1307 53.7883 75.0318 53.5099C74.9377 53.2268 74.8906 52.8846 74.8906 52.4835V48.562H76.0415V52.6463C76.0415 52.7879 76.0509 52.9271 76.0698 53.064C76.0933 53.2008 76.1404 53.3117 76.211 53.3967C76.2863 53.4816 76.3993 53.5241 76.5499 53.5241C76.7052 53.5241 76.8182 53.4816 76.8888 53.3967C76.9641 53.3117 77.0112 53.2008 77.03 53.064C77.0488 52.9271 77.0583 52.7879 77.0583 52.6463V48.562H78.2092V52.4835C78.2092 52.8846 78.1597 53.2268 78.0609 53.5099C77.9667 53.7883 77.7996 54.003 77.5596 54.1541C77.3195 54.3003 76.9829 54.3735 76.5499 54.3735Z" fill="white"/>
<path d="M71.0352 54.2956V48.562H72.4332C72.918 48.562 73.2946 48.6257 73.5629 48.7531C73.8359 48.8758 74.0289 49.0717 74.1419 49.3407C74.2548 49.6049 74.3113 49.9447 74.3113 50.36V52.4481C74.3113 52.8728 74.2548 53.222 74.1419 53.4957C74.0289 53.7695 73.8383 53.9724 73.57 54.1045C73.3064 54.2319 72.9368 54.2956 72.4614 54.2956H71.0352ZM72.2002 53.4816H72.4473C72.6638 53.4816 72.8168 53.4486 72.9062 53.3825C73.0004 53.3117 73.0592 53.2102 73.0828 53.0781C73.1063 52.9413 73.1181 52.7737 73.1181 52.5755V50.2113C73.1181 50.0131 73.1016 49.855 73.0686 49.737C73.0404 49.6144 72.9792 49.5247 72.8851 49.4681C72.7956 49.4114 72.6474 49.3831 72.4402 49.3831H72.2002V53.4816Z" fill="white"/>
<path d="M67.0789 54.3733C66.66 54.3733 66.3281 54.2978 66.0833 54.1468C65.8386 53.9958 65.662 53.7811 65.5538 53.5027C65.4502 53.2195 65.3984 52.8821 65.3984 52.4904V50.3527C65.3984 49.961 65.4502 49.626 65.5538 49.3476C65.662 49.0691 65.8386 48.8568 66.0833 48.7105C66.3281 48.5642 66.66 48.4911 67.0789 48.4911C67.5025 48.4911 67.8367 48.5666 68.0815 48.7176C68.331 48.8639 68.5075 49.0762 68.6111 49.3546C68.7193 49.6283 68.7735 49.961 68.7735 50.3527V52.4904C68.7735 52.8821 68.7193 53.2195 68.6111 53.5027C68.5075 53.7811 68.331 53.9958 68.0815 54.1468C67.8367 54.2978 67.5025 54.3733 67.0789 54.3733ZM67.0789 53.531C67.2295 53.531 67.3401 53.4979 67.4107 53.4319C67.4813 53.3611 67.5284 53.2691 67.552 53.1558C67.5755 53.0378 67.5873 52.9128 67.5873 52.7806V50.0696C67.5873 49.9374 67.5755 49.8147 67.552 49.7015C67.5284 49.5882 67.4813 49.4986 67.4107 49.4325C67.3401 49.3617 67.2295 49.3263 67.0789 49.3263C66.9377 49.3263 66.8318 49.3617 66.7612 49.4325C66.6905 49.4986 66.6435 49.5882 66.6199 49.7015C66.5964 49.8147 66.5846 49.9374 66.5846 50.0696V52.7806C66.5846 52.9128 66.5941 53.0378 66.6129 53.1558C66.6364 53.2691 66.6835 53.3611 66.7541 53.4319C66.8247 53.4979 66.933 53.531 67.0789 53.531ZM67.439 49.0078V48.5618H67.5802C67.7214 48.5618 67.8203 48.5123 67.8767 48.4132C67.9332 48.3141 67.9615 48.1678 67.9615 47.9743H68.717C68.717 48.3188 68.6134 48.5784 68.4063 48.753C68.1992 48.9228 67.9238 49.0078 67.5802 49.0078H67.439ZM67.0859 48.2008L66.7329 47.854C66.8694 47.7879 66.9847 47.7242 67.0789 47.6629C67.1777 47.5968 67.2272 47.5119 67.2272 47.408C67.2272 47.3137 67.1895 47.2476 67.1142 47.2098C67.0389 47.1721 66.94 47.1532 66.8176 47.1532C66.747 47.1532 66.6741 47.1579 66.5988 47.1674C66.5282 47.1768 66.4623 47.1886 66.4011 47.2028V46.7427C66.6176 46.686 66.8459 46.6577 67.0859 46.6577C67.2366 46.6577 67.3754 46.6813 67.5025 46.7285C67.6343 46.771 67.7379 46.8418 67.8132 46.9409C67.8932 47.04 67.9332 47.1721 67.9332 47.3373C67.9332 47.4977 67.8932 47.6322 67.8132 47.7407C67.7379 47.8493 67.6367 47.9389 67.5096 48.0097C67.3825 48.0805 67.2413 48.1442 67.0859 48.2008Z" fill="white"/>
<path d="M63.5419 54.3735C63.1889 54.3735 62.8947 54.3098 62.6593 54.1824C62.424 54.0502 62.2451 53.8544 62.1227 53.5948C62.0051 53.3306 61.9368 52.9955 61.918 52.5897L62.9206 52.4198C62.93 52.6557 62.9535 52.8539 62.9912 53.0144C63.0336 53.1701 63.0948 53.2881 63.1748 53.3683C63.2595 53.4438 63.3631 53.4816 63.4854 53.4816C63.6361 53.4816 63.7373 53.4344 63.7891 53.34C63.8455 53.2456 63.8738 53.1371 63.8738 53.0144C63.8738 52.7737 63.8149 52.5732 63.6973 52.4127C63.5843 52.2476 63.4337 52.0824 63.2454 51.9172L62.6523 51.4005C62.4405 51.2212 62.2663 51.0182 62.1298 50.7917C61.998 50.5652 61.9321 50.2868 61.9321 49.9565C61.9321 49.4846 62.0686 49.1236 62.3416 48.8735C62.6193 48.6186 62.9983 48.4912 63.4784 48.4912C63.7655 48.4912 64.0009 48.5384 64.1845 48.6328C64.368 48.7272 64.5092 48.8546 64.6081 49.015C64.7117 49.1708 64.7823 49.343 64.8199 49.5318C64.8623 49.7158 64.8882 49.8998 64.8976 50.0839L63.902 50.2325C63.8926 50.0579 63.8761 49.9046 63.8526 49.7724C63.8338 49.6403 63.7914 49.5365 63.7255 49.461C63.6643 49.3855 63.5702 49.3477 63.4431 49.3477C63.3066 49.3477 63.2054 49.3996 63.1395 49.5034C63.0736 49.6025 63.0406 49.7134 63.0406 49.8361C63.0406 50.0391 63.0853 50.2066 63.1748 50.3387C63.2689 50.4661 63.396 50.6006 63.5561 50.7422L64.135 51.2518C64.3751 51.4595 64.5799 51.6978 64.7493 51.9668C64.9235 52.231 65.0106 52.559 65.0106 52.9507C65.0106 53.2197 64.9494 53.4627 64.827 53.6798C64.7046 53.8969 64.5328 54.0667 64.3115 54.1894C64.095 54.3121 63.8385 54.3735 63.5419 54.3735Z" fill="white"/>
</g>
</g>
<defs>
<linearGradient id="paint0_linear_2538_12845" x1="73.1998" y1="-4.44531" x2="73.1998" y2="97.9513" gradientUnits="userSpaceOnUse">
<stop stop-color="#F1D83A"/>
<stop offset="1" stop-color="#FF8A14"/>
</linearGradient>
<clipPath id="clip0_2538_12845">
<rect width="156.15" height="94.2286" fill="white"/>
</clipPath>
<clipPath id="clip1_2538_12845">
<rect width="27.0139" height="27.1009" fill="white" transform="translate(30.4961 41.9624)"/>
</clipPath>
</defs>
</svg>
