<svg width="16" height="16" viewBox="0 0 16 16" fill="none" xmlns="http://www.w3.org/2000/svg">
<path fill-rule="evenodd" clip-rule="evenodd" d="M2.21736 1C1.54528 1 1 1.55445 1 2.23698V2.96501C1 3.47059 1.19226 3.95679 1.53617 4.32249L5.30508 8.33003L5.30674 8.3275C6.03433 9.07239 6.44371 10.0793 6.44371 11.1292V14.6851C6.44371 14.9228 6.69232 15.0744 6.89866 14.9624L9.04499 13.7928C9.36901 13.6158 9.57121 13.2721 9.57121 12.8988V11.12C9.57121 10.076 9.97478 9.07323 10.6958 8.33003L14.4647 4.32249C14.8077 3.95679 15 3.47059 15 2.96501V2.23698C15 1.55445 14.4555 1 13.7835 1H2.21736Z" stroke="#6B6B7C" stroke-linecap="round" stroke-linejoin="round"/>
<path d="M9.75 10.625L6.25 12.8125" stroke="#6B6B7C"/>
</svg>
