<svg width="16" height="16" viewBox="0 0 16 16" fill="none" xmlns="http://www.w3.org/2000/svg">
<path d="M9.85364 14.167H6.14697V10.2004C6.14697 9.83369 6.44697 9.53369 6.81364 9.53369H9.18697C9.55364 9.53369 9.85364 9.83369 9.85364 10.2004V14.167V14.167Z" stroke="#25BB94" stroke-linecap="round" stroke-linejoin="round"/>
<path d="M14.1663 7.59341V12.0667C14.1663 13.2267 13.273 14.1667 12.1663 14.1667H3.83301C2.72634 14.1667 1.83301 13.2267 1.83301 12.0667V7.59341C1.83301 6.96675 2.09301 6.38008 2.55301 5.98008L6.71967 2.32008C7.45967 1.66674 8.53967 1.66674 9.27967 2.32008L13.4463 5.98008C13.9063 6.38008 14.1663 6.96675 14.1663 7.59341Z" stroke="#25BB94" stroke-linecap="round" stroke-linejoin="round"/>
</svg>
