<svg width="13" height="12" viewBox="0 0 13 12" fill="none" xmlns="http://www.w3.org/2000/svg">
<g clip-path="url(#clip0_72_7056)">
<path d="M10.0833 11.7897V8.50743H9.43108V8.50103H8.91131V6.36964H10.6906H11.2921L13 4.80187L12.2177 3.93799L10.8422 5.20107H8.91131H7.81359H7.75003V8.50103H5.24997V5.20107H5.1869H4.08869H2.15778L0.782337 3.93799L0 4.80187L1.70794 6.36964H2.30985H4.08869V8.50103H4.08771H2.92643V9.6701V11.7897H2.92888V12.531L4.08771 12.533V9.6701H8.92207L8.92305 12.5246L10.0833 12.5157V11.7897Z" fill="#25BB94"/>
<path d="M3.03719 3.93692H3.59852V3.9379H4.81603H8.18449H9.402V3.93692H9.96332H10.5652L11.7808 2.80772L10.998 1.94385L10.1154 2.76785H9.402H9.33843H8.18449H4.81603H3.66209H3.59852H2.88513L2.00255 1.94385L1.21973 2.80772L2.43528 3.93692H3.03719Z" fill="#25BB94"/>
<path d="M5.01136 1.43635H7.98865L8.17836 1.94089H9.40174L8.64483 0.0123059H7.65028L7.72705 0.32783H5.27051L5.38346 0H4.30775L3.59827 1.94385H4.80844L5.01136 1.43635Z" fill="#25BB94"/>
</g>
<defs>
<clipPath id="clip0_72_7056">
<rect width="13" height="11.7" fill="white"/>
</clipPath>
</defs>
</svg>
