<svg width="20" height="20" viewBox="0 0 20 20" fill="none" xmlns="http://www.w3.org/2000/svg">
<path d="M9.98487 14.5418C13.3676 14.5418 16.1098 11.7995 16.1098 8.41675C16.1098 5.03401 13.3676 2.29175 9.98487 2.29175C6.60212 2.29175 3.85986 5.03401 3.85986 8.41675C3.85986 11.7995 6.60212 14.5418 9.98487 14.5418Z" stroke="black" stroke-linecap="round" stroke-linejoin="round"/>
<path d="M5.0013 12.0833L2.91797 15.6416L5.37631 15.5082L6.49298 17.6999L8.33464 14.5833C6.94297 14.2249 5.8263 13.2166 5.0013 12.0833Z" stroke="black" stroke-linecap="round" stroke-linejoin="round"/>
<path d="M15.0013 12.0833C14.1846 13.2249 13.0596 14.2166 11.668 14.5833L13.5096 17.7083L14.6263 15.5166L17.0846 15.6499L15.0013 12.0833Z" stroke="black" stroke-linecap="round" stroke-linejoin="round"/>
<path d="M13.4842 7.64182C13.6425 7.49182 13.5509 7.21681 13.3342 7.19181L11.3259 6.90014C11.2425 6.88348 11.1675 6.83348 11.1259 6.75015L10.2259 4.92515C10.1259 4.72515 9.84255 4.72515 9.75088 4.92515L8.85087 6.75015C8.8092 6.82515 8.73421 6.88348 8.65088 6.90014L6.64254 7.19181C6.42587 7.22515 6.34255 7.49182 6.49255 7.64182L7.95088 9.05847C8.01755 9.12514 8.04254 9.20847 8.02588 9.2918L7.68421 11.2918C7.64254 11.5085 7.87587 11.6751 8.06753 11.5668L9.86754 10.6251C9.94254 10.5835 10.0426 10.5835 10.1176 10.6251L11.9175 11.5668C12.1092 11.6668 12.3425 11.5001 12.3009 11.2918L11.9592 9.2918C11.9425 9.20847 11.9759 9.11681 12.0342 9.05847L13.4842 7.64182Z" stroke="black" stroke-linecap="round" stroke-linejoin="round"/>
</svg>
