<svg width="14" height="15" viewBox="0 0 14 15" fill="none" xmlns="http://www.w3.org/2000/svg">
<path d="M10.9121 12.9516H4.94456C4.1279 12.9516 3.46289 12.2866 3.46289 11.4699V5.50242C3.46289 4.68576 4.1279 4.02075 4.94456 4.02075H10.9121C11.7287 4.02075 12.3937 4.68576 12.3937 5.50242V11.4699C12.3937 12.2866 11.7287 12.9516 10.9121 12.9516Z" stroke="black" stroke-linecap="round" stroke-linejoin="round"/>
<path d="M2.03518 10.6586C1.76684 10.3903 1.60352 10.0169 1.60352 9.60858V3.6411C1.60352 2.82443 2.26852 2.15942 3.08519 2.15942H9.05268C9.51351 2.15942 9.92768 2.36942 10.2018 2.70192" stroke="black" stroke-linecap="round" stroke-linejoin="round"/>
<path d="M3.46289 11.1129L5.17205 9.40377C5.46372 9.1121 5.93623 9.1121 6.22206 9.40377L6.65956 9.84127C6.95123 10.1329 7.42372 10.1329 7.70956 9.84127L9.63455 7.91626C9.92622 7.62459 10.3987 7.62459 10.6846 7.91626L12.3937 9.62542" stroke="black" stroke-linecap="round" stroke-linejoin="round"/>
<path d="M6.07256 5.46704C5.62339 5.46704 5.26172 5.8287 5.26172 6.27787C5.26172 6.72703 5.62339 7.08871 6.07256 7.08871C6.52173 7.08871 6.88338 6.72703 6.88338 6.27787C6.88338 5.8287 6.51589 5.46704 6.07256 5.46704Z" fill="black"/>
</svg>
