<svg width="21" height="20" viewBox="0 0 21 20" fill="none" xmlns="http://www.w3.org/2000/svg">
<path d="M10.0819 2.29175C7.00687 2.29175 4.49854 4.80008 4.49854 7.87508C4.49854 11.6917 9.49854 17.3084 9.70687 17.5418C9.90687 17.7668 10.2569 17.7668 10.4569 17.5418C10.6735 17.3084 15.6652 11.6917 15.6652 7.87508C15.6652 4.80008 13.1569 2.29175 10.0819 2.29175Z" stroke="black" stroke-linecap="round" stroke-linejoin="round"/>
<path d="M10.403 9.82102C11.4802 9.64956 12.2145 8.63727 12.043 7.56004C11.8716 6.4828 10.8593 5.74853 9.78205 5.92C8.70481 6.09147 7.97054 7.10374 8.14201 8.18097C8.31348 9.25821 9.32575 9.99249 10.403 9.82102Z" stroke="black" stroke-linecap="round" stroke-linejoin="round"/>
</svg>
