<svg width="21" height="20" viewBox="0 0 21 20" fill="none" xmlns="http://www.w3.org/2000/svg">
<path d="M15.082 12.2751V16.2251C15.082 17.0417 14.432 17.7084 13.6404 17.7084H6.52371C5.72371 17.7084 5.08203 17.0417 5.08203 16.2251V3.77508C5.08203 2.95841 5.73204 2.29175 6.52371 2.29175H13.6404C14.4404 2.29175 15.082 2.95841 15.082 3.77508V12.5667" stroke="black" stroke-linecap="round" stroke-linejoin="round"/>
<path d="M9.66528 4.8584H10.4986" stroke="black" stroke-linecap="round" stroke-linejoin="round"/>
<path d="M10.0821 15.8415C10.5423 15.8415 10.9154 15.4684 10.9154 15.0081C10.9154 14.5479 10.5423 14.1748 10.0821 14.1748C9.62188 14.1748 9.24878 14.5479 9.24878 15.0081C9.24878 15.4684 9.62188 15.8415 10.0821 15.8415Z" fill="black"/>
</svg>
