<svg width="20" height="20" viewBox="0 0 20 20" fill="none" xmlns="http://www.w3.org/2000/svg">
<path d="M10.4678 13.12V14.008C10.4678 14.0784 10.4539 14.148 10.4269 14.2131C10.4001 14.2781 10.3605 14.3373 10.3108 14.3871C10.261 14.4369 10.2019 14.4762 10.1369 14.5032C10.0719 14.53 10.0021 14.544 9.93173 14.544C9.86141 14.544 9.79165 14.53 9.72661 14.5032C9.66157 14.4762 9.60253 14.4369 9.55277 14.3871C9.50301 14.3373 9.46349 14.2781 9.43661 14.2131C9.40965 14.148 9.39573 14.0784 9.39573 14.008V13.0961C9.04077 13.0378 8.70093 12.9095 8.39605 12.7186C8.09112 12.5276 7.82724 12.2779 7.61976 11.984C7.54419 11.888 7.50206 11.7701 7.49976 11.648C7.50076 11.5794 7.51555 11.5116 7.54324 11.4488C7.57093 11.386 7.61099 11.3295 7.66099 11.2824C7.711 11.2354 7.76992 11.199 7.83431 11.1752C7.89869 11.1514 7.96721 11.1408 8.03577 11.144C8.1036 11.1441 8.17064 11.1586 8.23262 11.1861C8.2946 11.2137 8.35013 11.2539 8.39573 11.3041C8.65365 11.6381 9.00013 11.8931 9.39573 12.04V10C8.33173 9.58403 7.79576 8.95995 7.79576 8.15195C7.81179 7.71939 7.98181 7.30678 8.27517 6.98848C8.56853 6.67018 8.96589 6.46721 9.39573 6.41602V5.53594C9.39573 5.46555 9.40965 5.39589 9.43661 5.33086C9.46349 5.26583 9.50301 5.20681 9.55277 5.15703C9.60253 5.10726 9.66157 5.06776 9.72661 5.04082C9.79165 5.01389 9.86141 5 9.93173 5C10.0021 5 10.0719 5.01389 10.1369 5.04082C10.2019 5.06776 10.261 5.10726 10.3108 5.15703C10.3605 5.20681 10.4001 5.26583 10.4269 5.33086C10.4539 5.39589 10.4678 5.46555 10.4678 5.53594V6.40801C10.7655 6.45466 11.0507 6.56086 11.3064 6.72031C11.5621 6.87977 11.7829 7.08913 11.9557 7.33594C12.032 7.42591 12.0769 7.53835 12.0837 7.65603C12.0859 7.72499 12.0743 7.79355 12.0497 7.85803C12.0249 7.92243 11.9877 7.98139 11.9401 8.03123C11.8924 8.08115 11.8353 8.12107 11.7721 8.14867C11.7089 8.17627 11.6408 8.19099 11.5717 8.19203C11.4996 8.19003 11.4286 8.17259 11.3637 8.14083C11.2989 8.10907 11.2416 8.06379 11.1957 8.00803C11.005 7.76971 10.7536 7.58739 10.4678 7.48011V9.28011L10.6678 9.35995C11.6838 9.75995 12.3158 10.336 12.3158 11.248C12.3039 11.7367 12.1061 12.2024 11.7627 12.5502C11.4193 12.898 10.9562 13.1017 10.4678 13.12ZM9.39573 8.81603V7.51195C9.26661 7.55875 9.15549 7.64499 9.07797 7.75843C9.00053 7.87179 8.96053 8.00667 8.96381 8.14395C8.96141 8.28611 9.00109 8.42595 9.07797 8.54547C9.15485 8.66507 9.26541 8.75915 9.39573 8.81603ZM11.1477 11.272C11.1477 10.888 10.8838 10.656 10.4678 10.472V12.072C10.6585 12.0432 10.8325 11.9462 10.9574 11.7992C11.0824 11.6522 11.15 11.465 11.1477 11.272Z" fill="black"/>
<path d="M15.0001 3.33325H5.00008C4.11602 3.33325 3.26818 3.62595 2.64306 4.14688C2.01793 4.66782 1.66675 5.37431 1.66675 6.11103V13.0555C1.66675 13.7921 2.01793 14.4987 2.64306 15.0196C3.26818 15.5405 4.11602 15.8333 5.00008 15.8333H15.0001C15.8842 15.8333 16.732 15.5405 17.3571 15.0196C17.9822 14.4987 18.3334 13.7921 18.3334 13.0555V6.11103C18.3334 5.37431 17.9822 4.66782 17.3571 4.14688C16.732 3.62595 15.8842 3.33325 15.0001 3.33325Z" stroke="black" stroke-linecap="round" stroke-linejoin="round"/>
</svg>
