<svg width="20" height="20" viewBox="0 0 20 20" fill="none" xmlns="http://www.w3.org/2000/svg">
<path d="M16.7002 12.0584C17.2919 12.5667 16.8752 13.4251 16.0336 13.4251H9.87524V3.79175H16.0336C16.8752 3.79175 17.2919 4.65841 16.7002 5.15841L14.1919 7.30007C13.3502 8.01674 13.3502 9.19174 14.1919 9.90841L16.7002 12.0584Z" stroke="black" stroke-linecap="round" stroke-linejoin="round"/>
<path d="M3.02515 9.14209V17.7088" stroke="black" stroke-linecap="round" stroke-linejoin="round"/>
<path d="M9.01684 11.7167H3.87518C3.40018 11.7167 3.01685 11.3334 3.01685 10.8584V3.15008C3.01685 2.67508 3.40018 2.29175 3.87518 2.29175H9.01684C9.49184 2.29175 9.87518 2.67508 9.87518 3.15008V10.8584C9.87518 11.3334 9.49184 11.7167 9.01684 11.7167Z" stroke="black" stroke-linecap="round" stroke-linejoin="round"/>
</svg>
