<svg width="20" height="20" viewBox="0 0 20 20" fill="none" xmlns="http://www.w3.org/2000/svg">
<path d="M17 7.9V12.1C17 12.254 17 12.408 16.986 12.555C16.412 11.848 15.537 11.4 14.55 11.4C13.808 11.4 13.122 11.659 12.583 12.093C11.855 12.667 11.4 13.556 11.4 14.55C11.4 15.138 11.568 15.698 11.855 16.174C12.044 16.489 12.282 16.762 12.562 16.986C12.415 17 12.261 17 12.1 17H7.9C4.4 17 3 15.6 3 12.1V7.9C3 4.4 4.4 3 7.9 3H12.1C15.6 3 17 4.4 17 7.9Z" stroke="#292D32" stroke-linecap="round" stroke-linejoin="round"/>
<path d="M3 7H17" stroke="#292D32" stroke-linecap="round" stroke-linejoin="round"/>
<path d="M7.54297 2.9126V6.42198" stroke="#292D32" stroke-linecap="round" stroke-linejoin="round"/>
<path d="M12.5703 2.9126V6.09708" stroke="#292D32" stroke-linecap="round" stroke-linejoin="round"/>
<path d="M18.0001 14.7501C18.0001 15.3567 17.8268 15.9345 17.5307 16.4257C17.3574 16.7146 17.1407 16.9746 16.8879 17.1912C16.3173 17.6968 15.5734 18.0001 14.7501 18.0001C13.9773 18.0001 13.2623 17.7257 12.7061 17.2634H12.6989C12.41 17.0323 12.1645 16.7507 11.9695 16.4257C11.6733 15.9345 11.5 15.3567 11.5 14.7501C11.5 13.7245 11.9695 12.8072 12.7206 12.215C13.2767 11.7672 13.9845 11.5 14.7501 11.5C15.7684 11.5 16.6712 11.9622 17.2635 12.6917C17.7257 13.2478 18.0001 13.9701 18.0001 14.7501Z" stroke="#292D32" stroke-miterlimit="10" stroke-linecap="round" stroke-linejoin="round"/>
<path d="M13.4883 14.7502L14.2898 15.5518L16.0228 13.9487" stroke="#292D32" stroke-linecap="round" stroke-linejoin="round"/>
</svg>
