<svg width="20" height="21" viewBox="0 0 20 21" fill="none" xmlns="http://www.w3.org/2000/svg">
<path d="M10.968 16.0397H5.18464C3.58464 16.0397 2.29297 14.7481 2.29297 13.1481V10.2564C2.29297 8.65641 3.58464 7.36475 5.18464 7.36475H10.968C12.568 7.36475 13.8596 8.65641 13.8596 10.2564V13.1481C13.8513 14.7481 12.5596 16.0397 10.968 16.0397Z" stroke="black" stroke-linecap="round" stroke-linejoin="round"/>
<path d="M13.8516 13.6317L16.4016 14.59C17.0349 14.8234 17.7016 14.3567 17.7016 13.69V9.72338C17.7016 9.04838 17.0266 8.5817 16.4016 8.82336L13.8516 9.78169V13.6317Z" stroke="black" stroke-linecap="round" stroke-linejoin="round"/>
<path d="M5.57526 6.62319C6.75807 6.62319 7.71693 5.66433 7.71693 4.48152C7.71693 3.29871 6.75807 2.33984 5.57526 2.33984C4.39245 2.33984 3.43359 3.29871 3.43359 4.48152C3.43359 5.66433 4.39245 6.62319 5.57526 6.62319Z" stroke="black" stroke-linecap="round" stroke-linejoin="round"/>
<path d="M10.5753 6.62319C11.7581 6.62319 12.7169 5.66433 12.7169 4.48152C12.7169 3.29871 11.7581 2.33984 10.5753 2.33984C9.39245 2.33984 8.43359 3.29871 8.43359 4.48152C8.43359 5.66433 9.39245 6.62319 10.5753 6.62319Z" stroke="black" stroke-linecap="round" stroke-linejoin="round"/>
</svg>
